Coordinates
version=1
nRows=18
nColumns=28
inDegrees=yes

Units are S.I. units (second, meters, Newtons, ...)
If the header above contains a line with 'inDegrees', this indicates whether rotational values are in degrees (yes) or radians (no).

endheader
time	pelvis_tilt	pelvis_list	pelvis_rotation	pelvis_tx	pelvis_ty	pelvis_tz	hip_flexion_r	hip_adduction_r	hip_rotation_r	knee_angle_r	knee_rotation_r	knee_adduction_r	ankle_angle_r	subtalar_angle_r	mtp_angle_r	hip_flexion_l	hip_adduction_l	hip_rotation_l	knee_angle_l	knee_rotation_l	knee_adduction_l	ankle_angle_l	subtalar_angle_l	mtp_angle_l	lumbar_extension	lumbar_bending	lumbar_rotation
      0.28000000	     10.85817718	      6.58231059	    -97.32672762	     -0.18889822	      0.94405932	     -0.56358374	     23.24966830	    -18.30936179	     10.05335516	    -68.20069561	      0.92562363	     13.78177285	    -15.17140998	    -30.75495730	    -12.17929086	     31.74762879	      8.81820176	     -8.73111199	    -25.06022338	      9.33127435	     -2.60569356	     11.53635465	     -7.18113027	     -0.98875549	      0.00000000	      0.00000000	      0.00000000
      0.29000000	     11.25415965	      6.25831737	    -96.66272805	     -0.18838859	      0.94643650	     -0.55160887	     24.51051281	    -18.81068351	     10.05640006	    -69.59275439	      0.46821700	     13.89965378	    -13.33547465	    -29.01861211	    -11.39157662	     30.45677069	      9.59830606	     -8.61867360	    -24.76261925	      8.57678486	     -2.64351914	     11.94186894	     -7.42916890	     -1.00831123	      0.00000000	      0.00000000	      0.00000000
      0.30000000	     11.52919202	      6.13808565	    -95.84882940	     -0.18763716	      0.94865262	     -0.53958082	     25.88877864	    -19.27062193	      9.65901317	    -70.65678788	      0.36033205	     13.84023579	    -11.76872298	    -27.54748090	    -10.52634063	     29.30744167	     10.32234167	     -7.96273752	    -24.41608677	      8.16196791	     -2.73521645	     12.23443453	     -7.53044557	     -1.13232510	      0.00000000	      0.00000000	      0.00000000
      0.31000000	     11.81213957	      5.94207715	    -95.01286751	     -0.18690046	      0.95062509	     -0.52738009	     27.05198475	    -19.74813009	      9.29045862	    -71.34063678	      0.53404888	     13.76986050	    -10.18895350	    -25.94017725	     -6.85836162	     28.13420229	     11.05093745	     -7.41597676	    -24.26424833	      7.81101805	     -2.74133388	     13.01079592	     -7.17647640	     -1.84550687	      0.00000000	      0.00000000	      0.00000000
      0.32000000	     12.09963663	      5.60833038	    -94.32837948	     -0.18606225	      0.95262800	     -0.51541655	     28.07510085	    -20.26770859	      9.07860808	    -71.60285865	      1.34234814	     13.85263104	     -9.50862944	    -25.80738872	     -6.61198209	     26.75889969	     11.78701774	     -6.70017994	    -23.93073720	      8.27502923	     -2.76049433	     13.37265456	     -6.33741751	     -1.88835778	      0.00000000	      0.00000000	      0.00000000
      0.33000000	     12.59616327	      5.06408432	    -93.98333298	     -0.18591349	      0.95513948	     -0.50233719	     28.82692178	    -20.84414391	      8.85043143	    -71.43858001	      2.50531940	     13.57973630	     -8.45700258	    -25.89204977	     -6.53093580	     24.88629799	     12.59923887	     -6.22052064	    -23.13711341	      8.53491288	     -2.83515074	     13.87464712	     -5.88986388	     -1.92156995	      0.00000000	      0.00000000	      0.00000000
      0.34000000	     12.95269123	      4.90465664	    -93.17428400	     -0.18547210	      0.95699648	     -0.49050576	     29.86420263	    -21.39717762	      8.41678675	    -71.18197618	      3.59144471	     13.51080071	     -7.34208359	    -25.96087502	     -6.59829849	     23.53902563	     13.37528296	     -5.22142672	    -22.54407912	      8.88312769	     -2.91106200	     14.29014833	     -5.47972156	     -1.90945168	      0.00000000	      0.00000000	      0.00000000
      0.35000000	     12.63015626	      5.17611823	    -91.94552660	     -0.18414735	      0.95790772	     -0.47951905	     30.89780574	    -21.34947522	      7.55355057	    -70.51591670	      4.43929128	     13.54838811	     -6.09994399	    -26.20745363	     -6.84631788	     23.02983218	     13.56819490	     -3.74072603	    -22.91336740	      9.72942496	     -2.97722045	     15.27594578	     -4.08863108	     -1.94563445	      0.00000000	      0.00000000	      0.00000000
      0.36000000	     12.93469001	      4.49126236	    -91.60072486	     -0.18396242	      0.96073664	     -0.46664947	     31.08664495	    -21.66503839	      7.46209701	    -69.44243316	      5.59283723	     13.57181004	     -5.02424630	    -26.92710817	     -7.97208030	     20.87199925	     14.15224512	     -3.59792575	    -21.89991550	      9.47400920	     -2.81331441	     15.67818861	     -3.92967844	     -1.75965402	      0.00000000	      0.00000000	      0.00000000
      0.37000000	     13.15211256	      4.91704063	    -90.46224712	     -0.18238263	      0.96051016	     -0.45610174	     32.68003367	    -22.46851639	      7.47437569	    -68.88717797	      4.46721028	     14.24016826	     -3.89392386	    -25.09435982	     -7.72289273	     20.56585958	     14.89693284	     -2.47865421	    -22.16462033	      9.81164431	     -2.65885594	     16.30959874	     -3.15768162	     -1.83425241	      0.00000000	      0.00000000	      0.00000000
      0.38000000	     13.12439297	      4.93829502	    -89.89890238	     -0.18221218	      0.96191888	     -0.44459453	     33.40056247	    -22.34825556	      7.42469310	    -67.37786767	      5.10924809	     14.37063460	     -3.09615650	    -25.74891829	     -7.76329514	     19.45996520	     15.04663463	     -1.99864518	    -21.74678099	      9.71022376	     -2.60280523	     16.78486933	     -2.71606602	     -1.87340624	      0.00000000	      0.00000000	      0.00000000
      0.39000000	     13.43798569	      4.77949492	    -89.40285713	     -0.18203518	      0.96310466	     -0.43336385	     34.17572424	    -22.75707249	      7.80755571	    -65.97748647	      4.83307669	     14.94457066	     -2.73529858	    -25.92319530	     -7.94748878	     18.12846328	     15.57162339	     -1.28874135	    -21.17111830	     10.12151300	     -2.55144809	     17.20031292	     -2.10854054	     -1.87688338	      0.00000000	      0.00000000	      0.00000000
      0.40000000	     13.53860459	      4.60146429	    -88.99339176	     -0.18214831	      0.96448485	     -0.42189408	     34.72017581	    -22.66923941	      7.93703272	    -64.36169974	      4.24767783	     14.83352253	     -1.96682321	    -24.95312420	     -8.17054330	     16.76150681	     15.75921509	     -0.87056114	    -20.61391134	     10.04012058	     -2.49581260	     17.73985514	     -1.61378210	     -1.82760724	      0.00000000	      0.00000000	      0.00000000
      0.41000000	     13.87522917	      4.43328548	    -88.62550960	     -0.18203655	      0.96535039	     -0.41058930	     35.38260195	    -23.07487159	      8.35165396	    -62.79027706	      3.00695007	     15.25864179	     -1.15271648	    -23.73025190	     -8.12545179	     15.38184061	     16.23135115	     -0.39834118	    -19.96877254	     10.22243563	     -2.41545087	     18.07294960	     -1.17797683	     -1.81112877	      0.00000000	      0.00000000	      0.00000000
      0.42000000	     13.96692577	      4.38010306	    -88.36154792	     -0.18234560	      0.96609780	     -0.39929200	     35.84562244	    -22.83073710	      8.94484279	    -60.75523858	      1.90490062	     15.44888134	     -0.25141771	    -23.00970113	     -8.07141968	     14.23599340	     16.32916461	     -0.12813051	    -19.49398876	     10.52054406	     -2.35677326	     18.78708915	     -0.18400416	     -1.68629350	      0.00000000	      0.00000000	      0.00000000
      0.43000000	     13.97905786	      4.35208346	    -88.05461151	     -0.18237141	      0.96621194	     -0.38827759	     36.44500184	    -22.71197749	      9.38642168	    -58.99680129	     -0.14235257	     15.66446463	      0.87870642	    -21.03583148	     -7.86908745	     13.31130290	     16.45800703	      0.54320071	    -19.42410682	     11.25550240	     -2.24527165	     19.57432350	      0.99320667	     -1.57163343	      0.00000000	      0.00000000	      0.00000000
      0.44000000	     14.39889568	      4.36903907	    -87.93659438	     -0.18300981	      0.96674586	     -0.37685920	     36.97215531	    -22.77727852	     10.08161168	    -56.85649435	     -1.98417368	     15.70502429	      1.55416462	    -19.55076812	     -7.57679924	     11.93800478	     16.84955450	      1.33322373	    -18.35619788	     11.27103924	     -2.37332569	     19.53592813	      0.55518070	     -1.44963399	      0.00000000	      0.00000000	      0.00000000
      0.45000000	     14.21132072	      4.57679324	    -87.43198982	     -0.18283805	      0.96643295	     -0.36585915	     37.26437673	    -22.44693689	     10.22306504	    -54.42686634	     -3.92030253	     15.64405916	      2.24132033	    -17.93309983	     -7.17121538	     11.32288015	     16.72377800	      2.07480849	    -18.47266212	     11.89431407	     -2.35228775	     20.52300191	      1.70506950	     -1.44941351	      0.00000000	      0.00000000	      0.00000000
